<svg width="798" height="260" viewBox="0 0 798 260" fill="none" xmlns="http://www.w3.org/2000/svg">
<path fill-rule="evenodd" clip-rule="evenodd" d="M141.36 166.62C139.17 131.47 173.68 98.23 208.58 99.28C246.01 100.38 275.79 129.4 275.75 166.92C275.71 204.09 245.46 234.17 208.28 234.34C170.3 234.43 139.38 200.76 141.36 166.62ZM173.39 166.83C173.43 186.31 189.02 202.11 208.2 202.15C227.67 202.19 243.85 186.14 243.85 166.88C243.85 147.32 228.1 131.56 208.49 131.56C188.47 131.56 173.39 146.72 173.39 166.83Z" fill="black"/>
<path d="M627.58 111.53C635.69 117.66 643.63 123.62 651.45 129.53C645.4 144.99 619.21 163.96 590.15 161.13C557.91 158 531.21 131.43 528.64 100.93C525.17 59.87 554.7 34.1 579.37 28.31C610.09 21.13 637.97 34.43 651.7 57.71C643.8 63.75 635.77 69.88 627.03 76.55C618.24 63.33 606.24 56.91 590.48 58.89C581.99 59.99 574.85 63.92 569.32 70.43C556.14 85.85 557.49 106.76 572.32 120.4C588.12 134.81 607.42 131.9 627.58 111.53Z" fill="black"/>
<path fill-rule="evenodd" clip-rule="evenodd" d="M128.65 138.4C141.58 166.12 133.76 199.66 109.93 218.84C69.5 251.37 10.61 229.78 0.77 178.83C0.0899999 175.37 0.05 171.73 0.05 168.19C-0.03 117.49 0.00999996 66.84 0.00999996 16.18V0C10.44 0 20.5 0 31.14 0C31.14 36.17 31.14 71.86 31.14 107.69C39.64 105.03 47.07 101.99 54.8 100.38C84.63 94.21 115.55 110.35 128.65 138.4ZM67.01 202.19C86.44 202.19 102.71 186.14 102.75 166.96C102.75 147.4 87.08 131.6 67.48 131.52C47.37 131.43 32.16 146.39 32.12 166.45C32.03 186.22 47.62 202.19 67.01 202.19Z" fill="black"/>
<path d="M518.5 151.88C518.54 133.29 518.54 114.66 518.5 96.07C518.37 59.44 493.15 32.19 456.73 29.24C421.79 26.36 392.39 53.4 388 81.96C386.69 90.37 386.18 98.99 386.05 107.52C385.76 127.67 386.05 147.86 385.93 168.06C385.8 187.87 370.25 203.33 350.57 203.5C331.26 203.67 315.29 187.66 315.21 167.97C315.12 149.22 315.21 130.5 315.17 111.74V100.89H314.66C313.98 100.89 313.35 100.89 312.67 100.89C303.55 100.89 294.85 100.89 285.76 100.89H285.17L285.21 110.9C285.21 129.83 285.38 148.71 285.17 167.64C284.92 188.8 293.54 205.53 309.59 218.84C343.6 247.02 397.93 231.68 412.5 190.03C416.3 179.13 416.35 167.89 416.6 156.74C417.11 136.04 416.68 115.34 416.77 94.59C416.85 74.57 432.02 59.49 452.09 59.44C472.7 59.36 487.95 74.06 488.12 94.38C488.29 113.56 488.16 132.7 488.21 151.88V161.38H518.54L518.5 151.88Z" fill="#DD4BD8"/>
<path fill-rule="evenodd" clip-rule="evenodd" d="M745.49 121.59C755.67 116.43 762.38 109.59 765.97 98.77L797.7 109.72C791.53 128.56 778.73 142.12 759.47 151.84C749.16 157.03 738.73 159.65 728.21 159.65C721.02 159.65 713.84 158.43 706.66 156.02C689 150.06 675.53 138.15 666.65 120.57C658.33 104.06 656.98 86.5201 662.68 68.48C668.43 50.4 679.96 36.8401 697.03 28.2201C713.84 19.7701 731.59 18.6301 749.75 24.8901C767.88 31.1401 781.99 44.1901 791.58 63.6701L793.77 68.1001L702.23 114.32C708.06 120.53 714.31 124.12 721.24 125.22C730.02 126.57 737.92 125.39 745.49 121.59ZM712.15 58.1801C700.62 64.0101 694.24 72.7901 692.76 84.8801L743.84 59.0601C738.13 55.9801 732.56 54.4201 727.02 54.4201C722.04 54.4201 717.1 55.6801 712.15 58.1801Z" fill="black"/>
<path d="M501.89 180.82V241.31H493.74V180.82H501.89Z" fill="#DD4BD8"/>
<path d="M512.03 197.84H518.71V205.15C520.74 202.11 522.93 199.91 525.26 198.6C527.58 197.29 530.45 196.62 533.79 196.62C538.18 196.62 541.69 197.72 544.27 199.87C546.89 202.02 548.15 204.9 548.15 208.49V241.36H540.97V211.23C540.97 208.62 540.13 206.54 538.44 205.02C536.75 203.46 534.47 202.7 531.59 202.7C527.88 202.7 524.92 204.05 522.68 206.71C520.44 209.42 519.3 212.97 519.3 217.36V241.36H512.03V197.84Z" fill="#DD4BD8"/>
<path d="M562.43 228.39C562.77 231.01 563.7 233.03 565.26 234.55C566.78 236.08 569.57 236.84 573.54 236.84C576.71 236.84 579.29 236.2 581.23 234.98C583.18 233.75 584.15 232.1 584.15 230.03C584.15 228.43 583.6 227.16 582.5 226.23C581.4 225.3 579.63 224.54 577.13 223.99L570.38 222.43C565.01 221.2 561.25 219.68 559.14 217.82C557.03 215.97 555.97 213.35 555.97 209.88C555.97 205.83 557.57 202.62 560.74 200.21C563.91 197.8 568.14 196.62 573.42 196.62C578.7 196.62 582.71 197.76 585.54 200.08C588.37 202.4 589.81 205.7 589.89 209.97H582.2C582.03 205.32 578.99 203 573.08 203C570.12 203 567.8 203.59 566.07 204.77C564.33 205.95 563.45 207.56 563.45 209.54C563.45 211.11 564.12 212.33 565.43 213.3C566.74 214.28 568.9 215.08 571.85 215.75L578.78 217.32C583.3 218.37 586.56 219.85 588.58 221.75C590.61 223.65 591.62 226.23 591.62 229.44C591.62 233.67 589.94 237 586.56 239.5C583.18 241.99 578.61 243.21 572.91 243.21C561.17 243.21 555.12 238.27 554.79 228.34H562.43V228.39Z" fill="#DD4BD8"/>
<path d="M607.64 180.82V189.52H600.37V180.82H607.64ZM607.64 197.84V241.31H600.45V197.84H607.64Z" fill="#DD4BD8"/>
<path fill-rule="evenodd" clip-rule="evenodd" d="M621.15 236.96C617.56 232.78 615.79 227.25 615.79 220.32C615.79 213.22 617.56 207.52 621.11 203.12C624.66 198.77 629.35 196.57 635.14 196.57C640.8 196.57 645.45 199.11 649.04 204.14V197.84H655.71V234.17C655.71 238.31 655.46 241.78 654.95 244.61C654.44 247.4 653.47 249.97 652.08 252.38C650.69 254.75 648.61 256.52 645.87 257.71C643.12 258.89 639.62 259.44 635.43 259.44C630.11 259.44 625.84 258.3 622.68 255.97C619.51 253.65 617.69 250.44 617.31 246.34H624.7C625.51 251.2 629.18 253.65 635.73 253.65C640.59 253.65 643.93 252.34 645.7 249.72C647.47 247.1 648.4 243.09 648.4 237.72V235.48C646.38 238.23 644.26 240.26 642.11 241.44C639.87 242.62 637.34 243.21 634.5 243.21C629.18 243.21 624.75 241.14 621.15 236.96ZM626.69 207.56C624.45 210.6 623.31 214.74 623.31 219.94C623.31 225.18 624.45 229.32 626.69 232.36C628.93 235.36 632.05 236.88 635.98 236.88C639.79 236.88 642.83 235.4 645.02 232.44C647.22 229.48 648.32 225.39 648.32 220.19C648.32 214.78 647.22 210.56 645.07 207.52C642.87 204.47 639.83 203 635.9 203C632.01 203 628.97 204.52 626.69 207.56Z" fill="#DD4BD8"/>
<path d="M695.85 211.19C695.85 208.15 694.87 205.95 692.93 204.64C690.99 203.33 688.83 202.66 686.47 202.66C682.75 202.66 679.79 204.01 677.55 206.67C675.31 209.38 674.17 212.92 674.17 217.32V241.31H666.99V180.82H674.17V203.8C676.33 201.14 678.48 199.28 680.64 198.18C682.79 197.08 685.5 196.57 688.75 196.57C693.14 196.57 696.61 197.63 699.18 199.79C701.76 201.9 703.03 204.81 703.03 208.45V241.31H695.85V211.19Z" fill="#DD4BD8"/>
<path d="M730.53 197.84V203.5H723.05V233.29C723.05 234.85 723.31 235.86 723.86 236.41C724.4 236.92 725.46 237.22 727.02 237.22C728.46 237.22 729.64 237.09 730.49 236.88V242.71C728.25 243.09 726.26 243.3 724.57 243.3C721.74 243.3 719.59 242.71 718.07 241.52C716.55 240.34 715.83 238.65 715.83 236.41V203.55H709.66V197.88H715.83V185.89H723.01V197.84H730.53Z" fill="#DD4BD8"/>
<path d="M741.73 228.39C742.06 231.01 742.99 233.03 744.56 234.55C746.08 236.08 748.87 236.84 752.84 236.84C756 236.84 758.58 236.2 760.53 234.98C762.47 233.75 763.44 232.1 763.44 230.03C763.44 228.43 762.89 227.16 761.79 226.23C760.69 225.3 758.92 224.54 756.43 223.99L749.67 222.43C744.3 221.2 740.54 219.68 738.43 217.82C736.32 215.97 735.26 213.35 735.26 209.88C735.26 205.83 736.87 202.62 740.04 200.21C743.2 197.8 747.43 196.62 752.71 196.62C757.99 196.62 762 197.76 764.83 200.08C767.66 202.4 769.1 205.7 769.19 209.97H761.54C761.37 205.32 758.33 203 752.41 203C749.46 203 747.13 203.59 745.4 204.77C743.67 205.95 742.78 207.56 742.78 209.54C742.78 211.11 743.46 212.33 744.77 213.3C746.08 214.28 748.23 215.08 751.19 215.75L758.12 217.32C762.64 218.37 765.89 219.85 767.92 221.75C769.95 223.65 770.96 226.23 770.96 229.44C770.96 233.67 769.27 237 765.89 239.5C762.51 241.99 757.95 243.21 752.24 243.21C740.5 243.21 734.46 238.27 734.12 228.34H741.73V228.39Z" fill="#DD4BD8"/>
</svg>
